<svg t="1752741948024" class="icon" viewBox="0 0 1024 1024" version="1.1" xmlns="http://www.w3.org/2000/svg" p-id="8018" width="32" height="32"><path d="M512 64C262.4 64 64 262.4 64 512s198.4 448 448 448 448-198.4 448-448-198.4-448-448-448z m0-64c281.6 0 512 230.4 512 512s-230.4 512-512 512-512-230.4-512-512 230.4-512 512-512zM428.8 678.4L768 339.2c12.8-12.8 32-12.8 44.8 0 12.8 12.8 12.8 32 0 44.8L448 748.8c-12.8 12.8-32 12.8-44.8 0L268.8 614.4c-12.8-12.8-12.8-32 0-44.8 12.8-12.8 32-12.8 44.8 0l115.2 108.8z" fill="#777777" p-id="8019"></path></svg>