<svg t="1747383322064" class="icon" viewBox="0 0 1024 1024" version="1.1" xmlns="http://www.w3.org/2000/svg" p-id="2445" width="26" height="26"><path d="M512 16c-26.24 0-48 21.76-48 48v128c0 26.24 21.76 48 48 48s48-21.76 48-48V64c0-26.24-21.76-48-48-48zM512 784c-26.24 0-48 21.76-48 48v128c0 26.24 21.76 48 48 48s48-21.76 48-48v-128c0-26.24-21.76-48-48-48zM240 512c0-26.24-21.76-48-48-48H64c-26.24 0-48 21.76-48 48s21.76 48 48 48h128c26.24 0 48-21.76 48-48zM960 464h-128c-26.24 0-48 21.76-48 48s21.76 48 48 48h128c26.24 0 48-21.76 48-48s-21.76-48-48-48zM338.56 96c-12.8-23.04-42.24-32-65.28-19.2s-32 42.24-19.2 65.28l61.44 112c8.96 16 24.96 24.96 42.24 24.96 7.68 0 16-1.92 23.04-5.76 23.04-12.8 32-42.24 19.2-65.28L338.56 96zM707.84 769.28c-12.8-23.04-42.24-32-65.28-19.2s-32 42.24-19.2 65.28l61.44 112c8.96 16 24.96 24.96 42.24 24.96 7.68 0 16-1.92 23.04-5.76 23.04-12.8 32-42.24 19.2-65.28l-61.44-112zM273.28 642.56c-12.8-23.04-42.24-32-65.28-19.2l-112 61.44c-23.04 12.8-32 42.24-19.2 65.28 8.96 16 24.96 24.96 42.24 24.96 7.68 0 16-1.92 23.04-5.76l112-61.44c23.04-12.8 32-42.24 19.2-65.28zM750.72 381.44c8.96 16 24.96 24.96 42.24 24.96 7.68 0 16-1.92 23.04-5.76l112-61.44c23.04-12.8 32-42.24 19.2-65.28s-42.24-32-65.28-19.2l-112 61.44c-23.04 12.8-32 42.24-19.2 65.28zM104.32 320l109.44 66.56c7.68 4.48 16.64 7.04 24.96 7.04a47.872 47.872 0 0 0 24.96-88.96L154.24 238.08a48.448 48.448 0 0 0-65.92 16c-14.08 22.4-6.4 52.48 16 65.92zM919.68 704l-109.44-66.56a48 48 0 0 0-49.92 81.92l109.44 66.56c7.68 4.48 16.64 7.04 24.96 7.04a47.872 47.872 0 0 0 24.96-88.96zM370.56 744.32a47.872 47.872 0 0 0-65.92 16l-66.56 109.44c-13.44 22.4-6.4 52.48 16 65.92 7.68 4.48 16.64 7.04 24.96 7.04 16 0 32-8.32 40.96-23.04l66.56-109.44c13.44-22.4 6.4-52.48-16-65.92zM653.44 279.68c7.68 4.48 16.64 7.04 24.96 7.04 16 0 32-8.32 40.96-23.04l66.56-109.44c13.44-22.4 6.4-52.48-16-65.92a48.448 48.448 0 0 0-65.92 16L637.44 213.76c-13.44 22.4-6.4 52.48 16 65.92z" p-id="2446" fill="#8a8a8a"></path></svg>